# xmcd
#
# Track frame offsets:
#	182
#	7485
#	19005
#	30352
#	42135
#	54002
#	66540
#	77845
#	86677
#	95777
#	106127
#	117350
#	127577
#	141027
#	150645
#	161125
#
# Disc length: 2333 seconds
#
# Revision: 3
# Processed by: cddbd v1.5.2PL0 Copyright (c) Steve Scherf et al.
# Submitted via: audiograbber 1.83.01
#
DISCID=c8091b10
DTITLE=Luman, Bob - Loretta
DYEAR=1900
DGENRE=Country
TTITLE0=Loretta
TTITLE1=It's a sin
TTITLE2=If you don't love me
TTITLE3=Love worked a micracle
TTITLE4=Poor boy blues
TTITLE5=(I get so) Sentimental
TTITLE6=You're welcome
TTITLE7=Running scared
TTITLE8=Freedom of living
TTITLE9=Tears from out of nowhere
TTITLE10=It's all over
TTITLE11=The best years of my wife
TTITLE12=Bigger men than I
TTITLE13=Too hot to dance
TTITLE14=I like your kInd of love
TTITLE15=Hardly anymore
EXTD=
EXTT0=
EXTT1=
EXTT2=
EXTT3=
EXTT4=
EXTT5=
EXTT6=
EXTT7=
EXTT8=
EXTT9=
EXTT10=
EXTT11=
EXTT12=
EXTT13=
EXTT14=
EXTT15=
PLAYORDER=
